<svg height="512pt" viewBox="-75 0 512 512" width="512pt" xmlns="http://www.w3.org/2000/svg"><path d="m362.269531 289.640625v-255.746094c0-18.640625-15.25-33.894531-33.890625-33.894531h-294.484375c-18.640625 0-33.894531 15.253906-33.894531 33.894531v255.742188h362.269531zm0 0" fill="#6c7fd9"/><path d="m65.144531 0h-31.25c-18.640625 0-33.894531 15.253906-33.894531 33.894531v255.742188h31.253906v-255.742188c-.003906-18.640625 15.25-33.894531 33.890625-33.894531zm0 0" fill="#4f66d1"/><path d="m0 287.578125v190.527344c0 18.640625 15.253906 33.894531 33.894531 33.894531h294.480469c18.640625 0 33.894531-15.253906 33.894531-33.894531v-190.527344zm0 0" fill="#4f66d1"/><path d="m31.25 478.105469v-190.527344h-31.25v190.527344c0 18.640625 15.253906 33.894531 33.894531 33.894531h31.25c-18.640625 0-33.894531-15.253906-33.894531-33.894531zm0 0" fill="#314dca"/><path d="m328.375 32h-294.480469c-.972656 0-1.894531.921875-1.894531 1.894531v220.214844c0 .972656.921875 1.890625 1.894531 1.890625h294.480469c.972656 0 1.894531-.917969 1.894531-1.890625v-220.214844c0-.972656-.921875-1.894531-1.894531-1.894531zm0 0" fill="#ffe55a"/><path d="m63.25 254.105469v-220.210938c0-.972656.921875-1.894531 1.894531-1.894531h-31.25c-.972656 0-1.894531.921875-1.894531 1.894531v220.214844c0 .972656.921875 1.890625 1.894531 1.890625h31.25c-.972656 0-1.894531-.921875-1.894531-1.894531zm0 0" fill="#ffd500"/><path d="m240.335938 213.507812h-33.417969c-2.507813 0-4.539063-2.03125-4.539063-4.539062v-33.414062c0-2.507813-2.03125-4.539063-4.535156-4.539063h-33.417969c-2.507812 0-4.539062 2.03125-4.539062 4.539063v33.414062c0 2.507812-2.03125 4.539062-4.535157 4.539062h-33.417968c-2.503906 0-4.535156 2.03125-4.535156 4.539063v33.414063c0 2.507812 2.03125 4.539062 4.535156 4.539062h118.402344c2.503906 0 4.535156-2.03125 4.535156-4.539062v-33.414063c0-2.507813-2.03125-4.539063-4.535156-4.539063zm0 0" fill="#ff646f"/><path d="m184.871094 208.972656v-33.417968c0-2.507813 2.035156-4.539063 4.539062-4.539063h-24.984375c-2.503906 0-4.535156 2.03125-4.535156 4.539063v33.417968c0 2.503906-2.03125 4.535156-4.539063 4.535156h24.984376c2.503906 0 4.535156-2.03125 4.535156-4.535156zm0 0" fill="#ff4755"/><path d="m142.382812 251.460938v-33.414063c0-2.507813 2.03125-4.539063 4.535157-4.539063h-24.984375c-2.503906 0-4.535156 2.03125-4.535156 4.539063v33.414063c0 2.507812 2.03125 4.539062 4.535156 4.539062h24.984375c-2.507813 0-4.535157-2.03125-4.535157-4.539062zm0 0" fill="#ff4755"/><path d="m244.871094 65.859375v33.417969c0 2.503906-2.03125 4.539062-4.535156 4.539062h-33.417969c-2.507813 0-4.539063 2.03125-4.539063 4.535156v33.417969c0 2.503907 2.03125 4.539063 4.539063 4.539063h33.417969c2.503906 0 4.535156 2.03125 4.535156 4.535156v33.417969c0 2.503906 2.03125 4.535156 4.539062 4.535156h33.417969c2.507813 0 4.539063-2.03125 4.539063-4.535156 0-11.65625 0-102.40625 0-118.402344 0-2.503906-2.03125-4.535156-4.539063-4.535156h-33.417969c-2.507812-.003907-4.539062 2.03125-4.539062 4.535156zm0 0" fill="#ff646f"/><g fill="#ff4755"><path d="m227.363281 141.769531v-33.417969c0-2.507812 2.03125-4.539062 4.539063-4.539062h-24.984375c-2.503907 0-4.535157 2.03125-4.535157 4.539062v33.417969c0 2.503907 2.03125 4.535157 4.535157 4.535157h24.984375c-2.507813 0-4.539063-2.03125-4.539063-4.535157zm0 0"/><path d="m269.855469 99.277344v-33.417969c0-2.503906 2.03125-4.539063 4.539062-4.539063h-24.984375c-2.503906 0-4.539062 2.035157-4.539062 4.539063v33.417969c0 2.503906-2.03125 4.539062-4.535156 4.539062h24.980468c2.507813-.003906 4.539063-2.035156 4.539063-4.539062zm0 0"/><path d="m269.855469 184.261719v-33.417969c0-2.507812-2.03125-4.539062-4.539063-4.539062h-24.980468c2.503906 0 4.535156 2.03125 4.535156 4.539062v33.417969c0 2.503906 2.035156 4.535156 4.539062 4.535156h24.984375c-2.507812 0-4.539062-2.03125-4.539062-4.535156zm0 0"/></g><path d="m263.15625 339.582031c-7.539062-7.535156-19.757812-7.535156-27.296875 0-7.535156 7.539063-7.535156 19.757813 0 27.296875 7.539063 7.539063 19.757813 7.539063 27.296875 0 7.539062-7.539062 7.539062-19.757812 0-27.296875zm0 0" fill="#60b8ff"/><path d="m260.847656 366.878906c-7.535156-7.539062-7.535156-19.757812 0-27.296875.371094-.371093.765625-.710937 1.15625-1.042969-7.582031-6.460937-18.972656-6.121093-26.136718 1.042969-7.539063 7.539063-7.539063 19.757813 0 27.296875 7.164062 7.164063 18.554687 7.503906 26.136718 1.042969-.390625-.332031-.78125-.671875-1.15625-1.042969zm0 0" fill="#22a7ff"/><path d="m314.453125 390.878906c-7.539063-7.539062-19.757813-7.539062-27.296875 0-7.535156 7.539063-7.535156 19.757813 0 27.296875 7.539062 7.535157 19.757812 7.535157 27.296875 0 7.535156-7.539062 7.535156-19.757812 0-27.296875zm0 0" fill="#ffd500"/><path d="m312.144531 418.175781c-7.535156-7.539062-7.535156-19.757812 0-27.296875.371094-.371094.761719-.707031 1.15625-1.042968-7.582031-6.460938-18.972656-6.121094-26.140625 1.042968-7.535156 7.539063-7.535156 19.757813 0 27.296875 7.167969 7.164063 18.558594 7.503907 26.140625 1.042969-.394531-.335938-.785156-.671875-1.15625-1.042969zm0 0" fill="#fbc700"/><path d="m118.40625 326.683594h-24.675781c-4.351563 0-7.875 3.527344-7.875 7.875v28.066406c0 2.601562 1.285156 5.035156 3.433593 6.503906l12.339844 8.421875c2.675782 1.828125 6.199219 1.828125 8.878906 0l12.335938-8.421875c2.148438-1.46875 3.433594-3.902344 3.433594-6.503906v-28.066406c0-4.347656-3.523438-7.875-7.871094-7.875zm0 0" fill="#314dca"/><path d="m114.273438 369.128906c-2.148438-1.46875-3.433594-3.902344-3.433594-6.503906v-28.066406c0-4.296875 3.441406-7.785156 7.71875-7.867188-.050782 0-.101563-.007812-.152344-.007812h-24.675781c-4.351563 0-7.875 3.523437-7.875 7.875v28.066406c0 2.601562 1.285156 5.035156 3.433593 6.503906l12.339844 8.421875c2.675782 1.828125 6.199219 1.828125 8.878906 0l8.050782-5.496093zm0 0" fill="#2740b1"/><path d="m118.40625 448.65625h-24.675781c-4.351563 0-7.875-3.523438-7.875-7.871094v-28.066406c0-2.605469 1.285156-5.039062 3.433593-6.503906l12.339844-8.425782c2.675782-1.828124 6.199219-1.828124 8.878906 0l12.335938 8.425782c2.148438 1.464844 3.433594 3.898437 3.433594 6.503906v28.066406c0 4.347656-3.523438 7.871094-7.871094 7.871094zm0 0" fill="#314dca"/><path d="m110.839844 440.785156v-28.066406c0-2.605469 1.285156-5.039062 3.433594-6.503906l4.285156-2.925782-8.050782-5.5c-2.679687-1.824218-6.203124-1.824218-8.878906 0l-12.339844 8.425782c-2.148437 1.46875-3.433593 3.902344-3.433593 6.503906v28.066406c0 4.347656 3.527343 7.875 7.875 7.875h24.675781c.050781 0 .101562-.007812.152344-.007812-4.277344-.085938-7.71875-3.574219-7.71875-7.867188zm0 0" fill="#2740b1"/><path d="m45.078125 375.332031v24.675781c0 4.351563 3.527344 7.875 7.875 7.875h28.066406c2.601563 0 5.039063-1.285156 6.503907-3.433593l8.425781-12.339844c1.828125-2.675781 1.828125-6.199219 0-8.878906l-8.425781-12.335938c-1.464844-2.148437-3.902344-3.433593-6.503907-3.433593h-28.066406c-4.347656 0-7.875 3.523437-7.875 7.871093zm0 0" fill="#314dca"/><path d="m70.0625 400.007812v-24.675781c0-4.347656 3.527344-7.871093 7.875-7.871093h-24.984375c-4.347656 0-7.871094 3.523437-7.871094 7.871093v24.675781c0 4.351563 3.523438 7.875 7.871094 7.875h24.984375c-4.347656 0-7.875-3.527343-7.875-7.875zm0 0" fill="#2740b1"/><path d="m167.054688 375.332031v24.675781c0 4.351563-3.527344 7.875-7.875 7.875h-28.066407c-2.601562 0-5.035156-1.285156-6.503906-3.433593l-8.421875-12.339844c-1.828125-2.675781-1.828125-6.199219 0-8.878906l8.421875-12.335938c1.46875-2.148437 3.902344-3.433593 6.503906-3.433593h28.066407c4.347656 0 7.875 3.523437 7.875 7.871093zm0 0" fill="#314dca"/><path d="m149.59375 404.449219-8.421875-12.339844c-1.828125-2.675781-1.828125-6.199219 0-8.878906l8.421875-12.335938c1.46875-2.148437 3.902344-3.433593 6.503906-3.433593h-24.984375c-2.601562 0-5.035156 1.285156-6.503906 3.433593l-8.421875 12.335938c-1.828125 2.679687-1.828125 6.203125 0 8.878906l8.421875 12.339844c1.46875 2.148437 3.902344 3.433593 6.503906 3.433593h24.984375c-2.601562 0-5.035156-1.285156-6.503906-3.433593zm0 0" fill="#2740b1"/></svg>